<svg width="200" height="145" viewBox="0 0 200 145" fill="none" xmlns="http://www.w3.org/2000/svg">
<path d="M10.791 123.5L32.791 93L58.291 123.5L22.291 138.5C16.1243 138.5 1.29075 143.885 1.29102 138.5C1.29119 135 6.79102 128.5 10.791 123.5Z" fill="#D7D8BD"/>
<path d="M10.791 123.5L32.791 93L58.291 123.5L22.291 138.5M10.791 123.5C10.791 133.1 18.4577 137.5 22.291 138.5M10.791 123.5C6.79102 128.5 1.29119 135 1.29102 138.5C1.29075 143.885 16.1243 138.5 22.291 138.5" stroke="#D7D8BD" stroke-width="2"/>
<path d="M168.791 1L33.7914 92.5C30.5914 117.3 49.1248 125.167 58.7915 126L195.291 41L199.291 22L195.291 9.5L183.291 1H168.791Z" fill="#3C9AFB" stroke="black"/>
<path d="M40.2915 99L156.792 23M156.792 23L164.292 9M156.792 23L167.792 37.5M167.792 37.5L183.292 42M167.792 37.5L53.2915 116" stroke="#FEF7F7" stroke-width="2"/>
<path d="M170.292 8.5L167.792 18.5L177.792 31L189.292 33.5L192.792 23.5L189.292 13.5L181.292 8.5H170.292Z" fill="#D7D8BD" stroke="#D7D8BD" stroke-width="2"/>
<path d="M20.7913 139.5C18.7915 131.5 14.1246 127.167 9.29127 124C7.95802 125.5 4.59146 129.8 1.79127 135C-1.00873 141.8 4.29127 143.167 7.29127 143C9.29127 142.5 14.7913 141.1 20.7913 139.5Z" fill="#423622" stroke="#423622" stroke-width="2"/>
<path d="M176.791 25C173.191 23 175.291 17.5 176.791 15H179.792H182.292C186.692 15 187.125 20 186.792 22.5C184.958 24.1667 180.391 27 176.791 25Z" fill="#423622" stroke="#423622" stroke-width="2"/>
</svg>
